# xmcd
# 
# Track frame offsets:
#     150
#     14529
#     23998
#     36899
#     53285
#     69899
#     80851
# 
# Disc length: 1270
# 
# Revision: 1
# Processed by: cddbd v1.5.2PL0 Copyright (c) Steve Scherf et al.
# Submitted via: fre:ac v1.0.17
# 
DISCID=4f04f407
DTITLE=Anna Aaron - I'll Dry Your Tears Little Murderer
DYEAR=2008
DGENRE=Rock
TTITLE0=Mary Ruth
TTITLE1=Who Maimed You
TTITLE2=Let the Street Bleed
TTITLE3=The Drainout
TTITLE4=When We Lay There
TTITLE5=A Song for Cheerups
TTITLE6=Nothing Left
EXTD=
EXTT0=
EXTT1=
EXTT2=
EXTT3=
EXTT4=
EXTT5=
EXTT6=
PLAYORDER=
